<svg xmlns="http://www.w3.org/2000/svg" viewBox="0 0 400 300" width="800" height="600">
  <rect width="400" height="300" fill="url(#bg)"/>
  <defs>
    <radialGradient id="bg" cx="50%" cy="42%" r="70%">
      <stop offset="0%" stop-color="#6280d0"/>
      <stop offset="60%" stop-color="#2145a8"/>
      <stop offset="100%" stop-color="#112355"/>
    </radialGradient>
    <linearGradient id="fl" x1="0" y1="0" x2="1" y2="1">
      <stop offset="0%" stop-color="#9dafe2"/>
      <stop offset="100%" stop-color="#18337c"/>
    </linearGradient>
    <linearGradient id="fd" x1="0" y1="0" x2="1" y2="1">
      <stop offset="0%" stop-color="#244bb5"/>
      <stop offset="100%" stop-color="#0f1f4c"/>
    </linearGradient>
  </defs>
  <ellipse cx="200" cy="150" rx="115" ry="90" fill="url(#bg)"/><ellipse cx="200" cy="150" rx="115" ry="90" fill="url(#fd)" opacity=".5"/><ellipse cx="170" cy="118" rx="42" ry="26" fill="#fff" opacity=".35"/><circle cx="170" cy="219" r="1" fill="#e8c94a" opacity=".85"/><circle cx="204" cy="201" r="3" fill="#e8c94a" opacity=".85"/><circle cx="258" cy="96" r="3" fill="#e8c94a" opacity=".85"/><circle cx="113" cy="200" r="2" fill="#e8c94a" opacity=".85"/><circle cx="251" cy="139" r="1" fill="#e8c94a" opacity=".85"/><circle cx="230" cy="218" r="3" fill="#e8c94a" opacity=".85"/><circle cx="231" cy="181" r="3" fill="#e8c94a" opacity=".85"/><circle cx="148" cy="139" r="3" fill="#e8c94a" opacity=".85"/><circle cx="148" cy="213" r="2" fill="#e8c94a" opacity=".85"/><circle cx="113" cy="96" r="1" fill="#e8c94a" opacity=".85"/><circle cx="261" cy="90" r="2" fill="#e8c94a" opacity=".85"/><circle cx="117" cy="148" r="2" fill="#e8c94a" opacity=".85"/><circle cx="262" cy="179" r="3" fill="#e8c94a" opacity=".85"/><circle cx="219" cy="181" r="3" fill="#e8c94a" opacity=".85"/><circle cx="257" cy="193" r="1" fill="#e8c94a" opacity=".85"/><circle cx="203" cy="104" r="1" fill="#e8c94a" opacity=".85"/><circle cx="144" cy="206" r="1" fill="#e8c94a" opacity=".85"/><circle cx="176" cy="191" r="3" fill="#e8c94a" opacity=".85"/><circle cx="187" cy="187" r="3" fill="#e8c94a" opacity=".85"/><circle cx="208" cy="169" r="3" fill="#e8c94a" opacity=".85"/><circle cx="259" cy="184" r="3" fill="#e8c94a" opacity=".85"/><circle cx="169" cy="166" r="3" fill="#e8c94a" opacity=".85"/><circle cx="117" cy="151" r="3" fill="#e8c94a" opacity=".85"/><circle cx="281" cy="121" r="3" fill="#e8c94a" opacity=".85"/><circle cx="193" cy="218" r="3" fill="#e8c94a" opacity=".85"/><circle cx="255" cy="106" r="3" fill="#e8c94a" opacity=".85"/><circle cx="277" cy="134" r="3" fill="#e8c94a" opacity=".85"/><circle cx="256" cy="148" r="2" fill="#e8c94a" opacity=".85"/><circle cx="141" cy="96" r="2" fill="#e8c94a" opacity=".85"/><circle cx="273" cy="203" r="1" fill="#e8c94a" opacity=".85"/>
</svg>